<svg width="200" height="200" viewBox="0 0 24 24" fill="none" xmlns="http://www.w3.org/2000/svg">
<path d="M4 5H5C5.55 5 6 5.45 6 6V18C6 18.55 5.55 19 5 19H4C3.45 19 3 18.55 3 18V6C3 5.45 3.45 5 4 5ZM19 5H20C20.55 5 21 5.45 21 6V18C21 18.55 20.55 19 20 19H19C18.45 19 18 18.55 18 18V6C18 5.45 18.45 5 19 5ZM11 5C11.55 5 12 5.45 12 6V18C12 18.55 11.55 19 11 19H9C8.45 19 8 18.55 8 18V6C8 5.45 8.45 5 9 5H11ZM16 5C16.55 5 17 5.45 17 6V18C17 18.55 16.55 19 16 19H14C13.45 19 13 18.55 13 18V6C13 5.45 13.45 5 14 5H16Z" fill="#4A90E2"/>
</svg>
