<svg width="200" height="200" viewBox="0 0 24 24" fill="none" xmlns="http://www.w3.org/2000/svg">
<path d="M19.71 5.29L18.3 3.88C17.92 3.5 17.37 3.5 17 3.88L14.12 6.76C13.74 7.14 13.19 7.14 12.81 6.76L10.93 4.88C10.55 4.5 10 4.5 9.62 4.88L8.21 6.29C7.83 6.67 7.83 7.22 8.21 7.6L10.09 9.47C10.47 9.85 10.47 10.4 10.09 10.78L7.21 13.66C6.83 14.04 6.28 14.04 5.9 13.66L4.49 12.25C4.11 11.87 3.56 11.87 3.18 12.25L1.77 13.66C1.39 14.04 1.39 14.59 1.77 14.97L5.18 18.38C5.56 18.76 6.11 18.76 6.49 18.38L7.9 16.97C8.28 16.59 8.83 16.59 9.21 16.97L12.09 19.85C12.47 20.23 13.02 20.23 13.4 19.85L14.81 18.44C15.19 18.06 15.19 17.51 14.81 17.13L12.93 15.25C12.55 14.87 12.55 14.32 12.93 13.94L15.81 11.06C16.19 10.68 16.74 10.68 17.12 11.06L18.3 12.24C18.68 12.62 19.23 12.62 19.61 12.24L21.02 10.83C21.4 10.45 21.4 9.9 21.02 9.52L19.71 8.21C19.33 7.83 19.33 7.28 19.71 6.9L21.12 5.49C21.5 5.11 21.5 4.56 21.12 4.18L19.71 2.77C19.33 2.39 18.78 2.39 18.4 2.77L16.99 4.18C16.61 4.56 16.61 5.11 16.99 5.49L19.71 5.29Z" fill="#FF8C00"/>
</svg>
